<svg xmlns="http://www.w3.org/2000/svg" viewBox="0 0 1200 800" width="1200" height="800" role="img" aria-label="Industrial Hydraulic Pumps">
  <defs>
    <pattern id="grid" width="40" height="40" patternUnits="userSpaceOnUse">
      <path d="M40 0H0V40" fill="none" stroke="#FFFFFF" stroke-opacity="0.04" stroke-width="1"/>
    </pattern>
    <radialGradient id="glow" cx="50%" cy="42%" r="55%">
      <stop offset="0%" stop-color="#FF4500" stop-opacity="0.20"/>
      <stop offset="100%" stop-color="#FF4500" stop-opacity="0"/>
    </radialGradient>
    <linearGradient id="metal" x1="0" y1="0" x2="0" y2="1">
      <stop offset="0%" stop-color="#4A4A4A"/>
      <stop offset="45%" stop-color="#2A2A2A"/>
      <stop offset="55%" stop-color="#333333"/>
      <stop offset="100%" stop-color="#1A1A1A"/>
    </linearGradient>
    <linearGradient id="metalH" x1="0" y1="0" x2="1" y2="0">
      <stop offset="0%" stop-color="#1E1E1E"/>
      <stop offset="35%" stop-color="#4A4A4A"/>
      <stop offset="65%" stop-color="#2E2E2E"/>
      <stop offset="100%" stop-color="#1A1A1A"/>
    </linearGradient>
    <linearGradient id="ember" x1="0" y1="0" x2="1" y2="1">
      <stop offset="0%" stop-color="#FF4500"/>
      <stop offset="100%" stop-color="#B32F00"/>
    </linearGradient>
  </defs>

  <rect width="1200" height="800" fill="#0A0A0A"/>
  <rect width="1200" height="800" fill="url(#grid)"/>
  <rect width="1200" height="800" fill="url(#glow)"/>

  <!-- corner ticks -->
  <g stroke="#FF4500" stroke-width="2" fill="none" opacity="0.9">
    <path d="M40 76V40h36"/><path d="M1124 40h36v36"/>
    <path d="M40 724v36h36"/><path d="M1160 724v36h-36"/>
  </g>

  <text x="64" y="90" fill="#FF4500" font-family="'Space Grotesk',sans-serif" font-size="17" font-weight="700" letter-spacing="4.5">TECHNICAL VIEW</text>
  <text x="64" y="134" fill="#FFFFFF" font-family="'Space Grotesk',sans-serif" font-size="40" font-weight="700">Industrial Hydraulic Pumps</text>

  <g>
      <rect x="370" y="240" width="380" height="320" rx="34" fill="#141414" stroke="#3A3A3A" stroke-width="2"/>
      <circle cx="560" cy="400" r="150" fill="url(#metal)" stroke="#3A3A3A" stroke-width="2"/>
      <circle cx="560" cy="400" r="104" fill="#0A0A0A" stroke="#3A3A3A" stroke-width="2"/>
      <g fill="none"><path d="M634.0 400.0L660.0 400.0" stroke="#3A3A3A" stroke-width="7" stroke-linecap="round"/><path d="M626.7 432.1L650.1 443.4" stroke="#3A3A3A" stroke-width="7" stroke-linecap="round"/><path d="M606.1 457.9L622.3 478.2" stroke="#3A3A3A" stroke-width="7" stroke-linecap="round"/><path d="M576.5 472.1L582.3 497.5" stroke="#3A3A3A" stroke-width="7" stroke-linecap="round"/><path d="M543.5 472.1L537.7 497.5" stroke="#3A3A3A" stroke-width="7" stroke-linecap="round"/><path d="M513.9 457.9L497.7 478.2" stroke="#3A3A3A" stroke-width="7" stroke-linecap="round"/><path d="M493.3 432.1L469.9 443.4" stroke="#3A3A3A" stroke-width="7" stroke-linecap="round"/><path d="M486.0 400.0L460.0 400.0" stroke="#3A3A3A" stroke-width="7" stroke-linecap="round"/><path d="M493.3 367.9L469.9 356.6" stroke="#3A3A3A" stroke-width="7" stroke-linecap="round"/><path d="M513.9 342.1L497.7 321.8" stroke="#3A3A3A" stroke-width="7" stroke-linecap="round"/><path d="M543.5 327.9L537.7 302.5" stroke="#3A3A3A" stroke-width="7" stroke-linecap="round"/><path d="M576.5 327.9L582.3 302.5" stroke="#3A3A3A" stroke-width="7" stroke-linecap="round"/><path d="M606.1 342.1L622.3 321.8" stroke="#3A3A3A" stroke-width="7" stroke-linecap="round"/><path d="M626.7 367.9L650.1 356.6" stroke="#3A3A3A" stroke-width="7" stroke-linecap="round"/></g>
      <circle cx="560" cy="400" r="66" fill="url(#metalH)" stroke="#FF4500" stroke-width="2.5"/>
      <circle cx="560" cy="400" r="26" fill="#0A0A0A" stroke="#3A3A3A" stroke-width="2"/>
      <!-- shaft -->
      <rect x="310" y="382" width="86" height="36" rx="6" fill="url(#metalH)" stroke="#3A3A3A" stroke-width="2"/>
      <!-- ports -->
      <rect x="730" y="292" width="70" height="56" rx="8" fill="#141414" stroke="#FF4500" stroke-width="2"/>
      <rect x="730" y="452" width="70" height="56" rx="8" fill="#141414" stroke="#3A3A3A" stroke-width="2"/>
      <text x="765" y="326" fill="#FF4500" text-anchor="middle" font-family="'Space Grotesk',sans-serif" font-size="18" font-weight="700">P</text>
      <text x="765" y="488" fill="#8A8A8A" text-anchor="middle" font-family="'Space Grotesk',sans-serif" font-size="18" font-weight="700">T</text>
      <g stroke="#FF4500" stroke-width="1.4" fill="none" opacity="0.85">
    <path d="M350 400L300 210"/>
    <circle cx="350" cy="400" r="4" fill="#FF4500" stroke="none"/>
  </g>
  <text x="290" y="215" fill="#FFFFFF" text-anchor="end" font-family="Inter,sans-serif" font-size="17">Drive shaft</text>
      <g stroke="#FF4500" stroke-width="1.4" fill="none" opacity="0.85">
    <path d="M560 312L300 600"/>
    <circle cx="560" cy="312" r="4" fill="#FF4500" stroke="none"/>
  </g>
  <text x="290" y="605" fill="#FFFFFF" text-anchor="end" font-family="Inter,sans-serif" font-size="17">Gear set</text>
      <g stroke="#FF4500" stroke-width="1.4" fill="none" opacity="0.85">
    <path d="M800 320L960 240"/>
    <circle cx="800" cy="320" r="4" fill="#FF4500" stroke="none"/>
  </g>
  <text x="970" y="245" fill="#FFFFFF" text-anchor="start" font-family="Inter,sans-serif" font-size="17">Pressure port</text>
      <g stroke="#FF4500" stroke-width="1.4" fill="none" opacity="0.85">
    <path d="M800 480L960 560"/>
    <circle cx="800" cy="480" r="4" fill="#FF4500" stroke="none"/>
  </g>
  <text x="970" y="565" fill="#FFFFFF" text-anchor="start" font-family="Inter,sans-serif" font-size="17">Tank / return port</text>
      <g stroke="#FF4500" stroke-width="1.5" fill="none" opacity="0.85">
    <path d="M410 619v18"/><path d="M710 619v18"/><path d="M410 628H710"/>
  </g>
  <text x="560" y="612" fill="#FF4500" text-anchor="middle" font-family="'Space Grotesk',sans-serif" font-size="16" font-weight="600">Ø 120 – 320 mm</text>
    </g>

  <line x1="64" y1="704" x2="1136" y2="704" stroke="#242424" stroke-width="1"/>
  <text x="64" y="740" fill="#8A8A8A" font-family="Inter,sans-serif" font-size="19">Indicative schematic — dimensions confirmed against your specification at quotation.</text>
  <text x="1136" y="740" fill="#8A8A8A" text-anchor="end" font-family="'Space Grotesk',sans-serif" font-size="15" letter-spacing="3">MECHAURA INTERNATIONAL</text>
</svg>
